<svg width="256" height="256" viewBox="0 0 256 256" fill="none" xmlns="http://www.w3.org/2000/svg">
  <rect width="256" height="256" rx="64" fill="#F5F5F7"/>
  <path d="M176.182 134.398C176.501 168.982 206.522 180.501 206.857 180.648C206.603 181.46 202.064 197.085 191.638 213.217C182.62 227.165 173.269 241.057 158.519 241.347C144.026 241.621 139.375 232.746 122.795 232.746C106.198 232.746 101.023 241.073 87.3285 241.621C73.0874 242.169 62.2276 227.355 53.1458 213.459C34.5332 184.837 20.3335 132.557 39.4233 99.4372C48.9042 82.9912 65.8553 72.5651 84.2516 72.291C98.2384 72.017 111.427 81.7152 120.028 81.7152C128.613 81.7152 144.713 70.0493 161.589 71.756C168.637 72.0494 188.407 74.5946 201.112 93.188C200.097 93.8168 175.863 107.92 176.182 134.398Z" fill="url(#paint0_linear)"/>
  <path d="M150.536 55.9891C158.097 46.8395 163.194 34.0001 161.797 21.3281C150.904 21.7649 137.707 28.5678 129.874 37.7015C122.843 45.8452 116.669 58.9229 118.321 71.3532C130.484 72.2906 142.719 65.1389 150.536 55.9891Z" fill="url(#paint1_linear)"/>
  <defs>
    <linearGradient id="paint0_linear" x1="113.59" y1="71.6719" x2="113.59" y2="241.637" gradientUnits="userSpaceOnUse">
      <stop stop-color="#FDFDFE"/>
      <stop offset="0.52" stop-color="#E8E8EC"/>
      <stop offset="1" stop-color="#C8C9CF"/>
    </linearGradient>
    <linearGradient id="paint1_linear" x1="140.126" y1="21.3281" x2="140.126" y2="71.4077" gradientUnits="userSpaceOnUse">
      <stop stop-color="#E8E8EC"/>
      <stop offset="1" stop-color="#BDBFC6"/>
    </linearGradient>
  </defs>
</svg>
